<?xml version="1.0" encoding="utf-8"?>
<!-- Generator: Adobe Illustrator 13.0.1, SVG Export Plug-In . SVG Version: 6.00 Build 14948)  -->
<!DOCTYPE svg PUBLIC "-//W3C//DTD SVG 1.1//EN" "http://www.w3.org/Graphics/SVG/1.1/DTD/svg11.dtd">
<svg version="1.1" xmlns="http://www.w3.org/2000/svg" xmlns:xlink="http://www.w3.org/1999/xlink" x="0px" y="0px"
	 width="520.375px" height="130.021px" viewBox="0 0 520.375 130.021" enable-background="new 0 0 520.375 130.021"
	 xml:space="preserve">
<g id="Capa_1">
</g>
<g id="Fondo">
</g>
<g id="Guías">
</g>
<g id="Primer_plano">
	<g>
		<path fill="#ED6E00" d="M0,110.975C77.852,110.975,23.288,0,110.972,0v9.211C32.281,9.211,87.168,120.187,0,120.187V110.975z"/>
		<g>
			<path fill-rule="evenodd" clip-rule="evenodd" fill="#737373" d="M183.966,106.298l-0.607-6.771
				c-1.416,0.744-3.017,1.32-4.801,1.728c-1.785,0.407-3.603,0.613-5.453,0.619c-4.695-0.104-7.946-1.57-9.753-4.4
				s-2.668-6.404-2.585-10.724c-0.004-4.974,1.067-8.911,3.215-11.81c2.146-2.9,5.391-4.381,9.731-4.444
				c1.702,0.011,3.338,0.185,4.909,0.521s3.034,0.771,4.389,1.304l0.869-6.856c-1.528-0.438-3.121-0.777-4.779-1.02
				s-3.338-0.365-5.04-0.369c-7.207,0.119-12.6,2.333-16.178,6.643c-3.577,4.31-5.364,10.001-5.36,17.073
				c0.143,7.823,2.006,13.271,5.589,16.345c3.583,3.072,8.03,4.545,13.343,4.416c2.547-0.023,4.903-0.258,7.07-0.705
				C180.691,107.402,182.505,106.886,183.966,106.298z"/>
			<path fill-rule="evenodd" clip-rule="evenodd" fill="#737373" d="M247.449,64.772h-8.513l-6.949,19.803
				c-0.851,2.455-1.669,4.889-2.454,7.301c-0.786,2.411-1.387,4.41-1.803,5.996h-0.174c-0.469-1.684-0.964-3.4-1.487-5.148
				c-0.523-1.75-1.127-3.597-1.813-5.541l-8.165-22.41h-8.861l16.331,43.181l-1.824,4.867c-1.462,4.088-2.968,6.884-4.517,8.387
				c-1.55,1.503-3.489,2.212-5.82,2.129c-0.992,0.002-1.939-0.067-2.845-0.206c-0.905-0.14-1.81-0.36-2.715-0.663l-0.694,7.028
				c0.892,0.135,1.844,0.255,2.855,0.357c1.012,0.104,1.941,0.158,2.79,0.163c4.645,0.099,8.321-1.183,11.032-3.841
				c2.711-2.659,5.26-7.284,7.645-13.876L247.449,64.772z"/>
			<rect x="275.136" y="44.527" fill-rule="evenodd" clip-rule="evenodd" fill="#737373" width="7.809" height="63.419"/>
			<path fill-rule="evenodd" clip-rule="evenodd" fill="#737373" d="M403.765,107.772v-6.594c-0.883,0.223-1.834,0.407-2.857,0.555
				c-1.022,0.146-2.04,0.223-3.052,0.228c-2.386,0.069-4.022-0.547-4.909-1.847c-0.887-1.301-1.307-3.697-1.26-7.193V70.844h12.078
				v-6.071h-12.078V48.611l-7.81,2.162v14h-8.862v6.071h8.862v24.858c-0.072,4.605,0.745,7.924,2.452,9.955s4.738,3.025,9.094,2.983
				c1.412-0.003,2.846-0.083,4.301-0.238S402.525,108.037,403.765,107.772z"/>
			<path fill-rule="evenodd" clip-rule="evenodd" fill="#737373" d="M520.375,107.772v-6.594c-0.882,0.223-1.833,0.407-2.856,0.555
				c-1.023,0.146-2.04,0.223-3.053,0.228c-2.385,0.069-4.021-0.547-4.908-1.847c-0.888-1.301-1.307-3.697-1.26-7.193V70.844h12.077
				v-6.071h-12.077V48.611l-7.81,2.162v14h-8.862v6.071h8.862v24.858c-0.073,4.605,0.745,7.924,2.452,9.955s4.737,3.025,9.093,2.983
				c1.412-0.003,2.846-0.083,4.302-0.238C517.79,108.247,519.137,108.037,520.375,107.772z"/>
			<path fill-rule="evenodd" clip-rule="evenodd" fill="#737373" d="M459.225,88.831c-0.015,2.305-0.507,4.496-1.478,6.576
				c-0.971,2.079-2.334,3.781-4.087,5.107s-3.811,2.011-6.173,2.055c-2.024-0.021-3.626-0.565-4.804-1.631
				c-1.177-1.064-1.778-2.521-1.804-4.369c-0.052-1.337,0.419-2.653,1.414-3.948c0.994-1.295,2.824-2.373,5.49-3.233
				c2.665-0.86,6.479-1.307,11.44-1.34V88.831z M467.208,107.947c-0.046-1.894-0.086-3.919-0.12-6.077
				c-0.034-2.156-0.052-4.271-0.054-6.344V78.323c0.11-4.367-1-7.847-3.332-10.438c-2.332-2.592-6.548-3.919-12.65-3.982
				c-2.88,0.022-5.596,0.325-8.148,0.911s-4.875,1.323-6.969,2.212l0.781,6.688c1.92-1.138,4.047-2.015,6.383-2.631
				c2.335-0.615,4.552-0.928,6.649-0.935c3.514,0.009,5.984,0.796,7.412,2.359c1.427,1.563,2.115,3.85,2.064,6.858v3.219
				c-8.233,0.052-14.606,1.444-19.119,4.177c-4.513,2.733-6.8,6.495-6.86,11.286c0.054,3.447,1.16,6.086,3.319,7.914
				s5.047,2.75,8.663,2.766c3.601-0.06,6.68-0.959,9.236-2.701c2.559-1.74,4.376-3.966,5.455-6.675h0.174
				c-0.209,1.233-0.335,2.591-0.38,4.072s-0.063,2.989-0.055,4.523H467.208z"/>
			<path fill="#ED6E00" d="M350.9,62.55l3.773,0.384v6.967l-0.337,0.002c-11.791,0.05-15.075,4.834-16.514,11.135
				c-1.608,7.039-1.027,14.54-5.213,20.85c-3.363,5.07-9.106,7.871-18.143,7.871l-3.76-0.285v-7.067h0.338
				c11.816,0,15.095-4.777,16.524-11.084c1.6-7.059,1.005-14.574,5.201-20.9C336.135,65.352,341.864,62.55,350.9,62.55z"/>
		</g>
		<path fill="#737373" d="M110.972,16.252v103.934h-8.756V16.893C104.904,16.472,107.814,16.252,110.972,16.252z M43.727,112.944
			v7.242h-9.499v-0.361C37.833,117.851,40.972,115.534,43.727,112.944z M59.98,85.093v35.094h-8.756v-16.23
			C54.996,98.228,57.743,91.799,59.98,85.093z M76.978,33.35v86.837h-9.307V56.956C70.043,48.248,72.761,40.063,76.978,33.35z
			 M93.975,19.034v101.152h-8.756V23.974C87.751,21.97,90.644,20.302,93.975,19.034z"/>
	</g>
</g>
</svg>
